<?xml version="1.0" encoding="utf-8"?>
<!-- Generator: Adobe Illustrator 27.8.1, SVG Export Plug-In . SVG Version: 6.00 Build 0)  -->
<svg version="1.1" id="Calque_1" xmlns="http://www.w3.org/2000/svg" xmlns:xlink="http://www.w3.org/1999/xlink" x="0px" y="0px"
	 width="913.3px" height="204.4px" viewBox="0 0 913.3 204.4" style="enable-background:new 0 0 913.3 204.4;" xml:space="preserve"
	>
<style type="text/css">
	.st0{fill:#23374D;}
</style>
<path class="st0" d="M88.2,2H6.3C2.9,2,0,4.9,0,8.3v14h28.9v175.8c0,1.4,0.9,4.3,5.7,4.3h14.6V27.2c0.3-2.6,2.3-4.9,5.2-4.9h16
	c6.6,0,9.7-2.9,10.9-5.4L88.2,2z M202.6,182.1v-69.6c0-2.6,2.3-4.9,4.9-4.9h8.6c6.6,0,9.4-2.9,10.9-5.4c0.9-1.7,4.3-10,6.6-15.2
	h-30.9V27.5c0-2.9,2-4.9,4.9-4.9h16.6c6.6,0,9.7-3.1,10.9-5.7L241.8,2h-53.5c-3.4,0-6,2.6-6.3,5.7v194.7h45.8
	c6.6,0,9.7-2.9,11.2-5.4c0.9-1.7,4.3-9.7,6.6-14.9H202.6z M402.9,45.5c2.6-1.4,5.7-4.6,5.7-11.2v-7.7c0-13.7-11.2-26.3-24.9-26.6
	h-12.9c-14.3,0-25.8,12.6-25.8,26.6v20.6c0,0-0.9,13.5,9.2,31.8l24.6,46.1c0,0,8.9,15.5,8.9,27.2v22.9c0,6.3-4.9,11.2-10.9,11.2
	s-10.9-4.9-10.9-10.9v-34.9c-5.2,2.3-13.5,6-15.2,6.6c-2.6,1.4-5.7,4.6-5.7,11.2v20.6c0.3,13.7,11.2,24.9,24.9,25.5h12.9
	c14.3,0,25.8-11.5,25.8-25.5v-25.5c0,0,0.9-13.5-9.2-31.8l-24.6-46.4c0,0-8.9-15.2-8.9-26.9V29.2c0-6.3,4.9-11.2,10.9-11.2
	s10.9,4.9,10.9,11.2v23.2C393.2,50.1,401.2,46.4,402.9,45.5z M574.6,45.5c2.6-1.4,5.7-4.6,5.7-11.2v-7.7c0-13.7-11.2-26.3-24.9-26.6
	h-12.9c-14.3,0-25.8,12.6-25.8,26.6v20.6c0,0-0.9,13.5,9.2,31.8l24.6,46.1c0,0,8.9,15.5,8.9,27.2v22.9c0,6.3-4.9,11.2-10.9,11.2
	c-6,0-10.9-4.9-10.9-10.9v-34.9c-5.2,2.3-13.5,6-15.2,6.6c-2.6,1.4-5.7,4.6-5.7,11.2v20.6c0.3,13.7,11.2,24.9,24.9,25.5h12.9
	c14.3,0,25.8-11.5,25.8-25.5v-25.5c0,0,0.9-13.5-9.2-31.8l-24.6-46.4c0,0-8.9-15.2-8.9-26.9V29.2c0-6.3,4.9-11.2,10.9-11.2
	c6,0,10.9,4.9,10.9,11.2v23.2C564.8,50.1,572.8,46.4,574.6,45.5z M756,202.4h-22.6l-18-138l-18,138h-22.6L705,2h11.2
	c8.6,0,10,5.4,10.9,10.9L756,202.4z M913.3,202.4V2h-20.6v115.4L871.5,13.2C870.3,7.4,868.3,2,856.9,2h-9.4v200.4h20.6V90.5l22,99.1
	c0.9,4,2.6,12.9,13.7,12.9H913.3z"/>
</svg>
